<svg xmlns="http://www.w3.org/2000/svg" viewBox="0 0 240 300"><defs><linearGradient id="a" x2="0" y2="1"><stop stop-color="#ffd6aa"/><stop offset="1" stop-color="#c88452"/></linearGradient></defs><ellipse cx="120" cy="276" rx="70" ry="13" fill="#000" opacity=".35"/><path d="M72 112Q70 72 120 62Q170 72 168 112L151 100 120 112 89 100z" fill="#2b65a7"/><circle cx="120" cy="74" r="43" fill="url(#a)"/><path d="M78 72Q84 25 125 31Q161 34 164 71L142 54 125 61 101 52z" fill="#5b3424"/><circle cx="104" cy="76" r="4"/><circle cx="137" cy="76" r="4"/><path d="M109 94Q120 101 132 94" fill="none" stroke="#7a4031" stroke-width="3"/><path d="M74 116L49 177 87 195 101 150 101 239 79 273 118 273 121 210 123 273 163 273 141 239 139 150 154 195 191 177 166 116 144 108 120 126 96 108z" fill="#254e83" stroke="#8eb7e9" stroke-width="4"/><path d="M120 128L106 167 120 184 134 167z" fill="#c7d5e4"/><path d="M80 147L43 177 53 190 94 165M160 147L197 177 187 190 146 165" fill="none" stroke="#d9e6f4" stroke-width="9" stroke-linecap="round"/><path d="M185 170L224 126" stroke="#e6eef8" stroke-width="8"/><path d="M224 126L232 117" stroke="#ffd36a" stroke-width="5"/><path d="M87 194L54 245M153 194L187 245" stroke="#1b3558" stroke-width="14"/></svg>