<svg xmlns="http://www.w3.org/2000/svg" width="512" height="256" viewBox="0 0 512 256">
<defs><style>.grid{fill:none;stroke:#244665;stroke-width:.5}.label{font:7px monospace;fill:#9edcff}</style></defs>
<rect width="512" height="256" fill="#071321"/>
<path class="grid" d="M0 0H512V256H0Z M32 0V256M64 0V256M96 0V256M128 0V256M160 0V256M192 0V256M224 0V256M256 0V256M288 0V256M320 0V256M352 0V256M384 0V256M416 0V256M448 0V256M480 0V256M0 32H512M0 64H512M0 96H512M0 128H512M0 160H512M0 192H512M0 224H512"/>
<text x="4" y="9" class="label">MMA:RPG 32x32 GRID SPRITE SHEET</text>
<symbol id="warrior_idle" viewBox="0 0 32 32"><circle cx="16" cy="7" r="4" fill="#d9a27e"/><path d="M11 7Q16 1 21 7v3H11z" fill="#5b2f1d"/><path d="M9 12h14l3 12H6z" fill="#3c6ca6"/><path d="M11 24h4v6h-5zM17 24h4v6h-3z" fill="#523c52"/><path d="M22 14l8-7" stroke="#eee" stroke-width="2"/></symbol>
<symbol id="warrior_attack" viewBox="0 0 32 32"><use href="#warrior_idle"/><path d="M20 11Q29 2 31 8" fill="none" stroke="#79d9ff" stroke-width="1.5"/></symbol>
<symbol id="ranger_idle" viewBox="0 0 32 32"><use href="#warrior_idle"/><path d="M23 12q6 4 6 10M25 12l-5 12" fill="none" stroke="#9a6b3f" stroke-width="1.5"/></symbol>
<symbol id="ranger_attack" viewBox="0 0 32 32"><use href="#ranger_idle"/><path d="M22 9l9 9" stroke="#dfefff"/><path d="M29 17l3 1" stroke="#79d9ff"/></symbol>
<symbol id="mage_idle" viewBox="0 0 32 32"><circle cx="16" cy="7" r="4" fill="#d9a27e"/><path d="M10 7L16 1l6 6-2 2H12z" fill="#6540a6"/><path d="M10 12h12l4 13H6z" fill="#6844b2"/><path d="M22 14q7 2 7 8" fill="none" stroke="#8f7dff" stroke-width="1.5"/><circle cx="29" cy="22" r="2" fill="#66d9ff"/></symbol>
<symbol id="mage_cast" viewBox="0 0 32 32"><use href="#mage_idle"/><circle cx="29" cy="22" r="4" fill="none" stroke="#66d9ff" stroke-width="1.5"/><path d="M29 16v12M23 22h12" stroke="#d7f7ff"/></symbol>
<symbol id="assassin_idle" viewBox="0 0 32 32"><circle cx="16" cy="7" r="4" fill="#d9a27e"/><path d="M11 7Q16 2 21 7v5H11z" fill="#25283c"/><path d="M9 12h14l3 12H6z" fill="#353b59"/><path d="M12 24h4v6h-5zM18 24h4v6h-3z" fill="#222638"/><path d="M10 15L3 11M22 15l7-4" stroke="#e7f0ff" stroke-width="1.5"/></symbol>
<symbol id="assassin_attack" viewBox="0 0 32 32"><use href="#assassin_idle"/><path d="M5 9Q16 2 27 9" fill="none" stroke="#ff67b5" stroke-width="1.5"/></symbol>
<symbol id="sword_long" viewBox="0 0 32 32"><path d="M7 26L23 7" stroke="#dbe7f5" stroke-width="3"/><path d="M5 24l5 4M8 27l3-3" stroke="#d3a64a" stroke-width="2"/><path d="M22 7l5-4-2 7z" fill="#fff"/></symbol>
<symbol id="bow" viewBox="0 0 32 32"><path d="M10 4Q26 16 10 28" fill="none" stroke="#9a6b3f" stroke-width="3"/><path d="M10 4v24M10 16h19" stroke="#dfefff" stroke-width="1.5"/></symbol>
<symbol id="staff" viewBox="0 0 32 32"><path d="M16 28V9" stroke="#8a5a34" stroke-width="3"/><circle cx="16" cy="6" r="5" fill="#7c66ff"/><circle cx="16" cy="6" r="2" fill="#d9f5ff"/></symbol>
<symbol id="dual_blade" viewBox="0 0 32 32"><path d="M7 25L15 9M25 25L17 9" stroke="#e9f1ff" stroke-width="3"/><path d="M12 27l4-3M20 27l-4-3" stroke="#d34e74" stroke-width="2"/></symbol>
<symbol id="leather" viewBox="0 0 32 32"><path d="M7 8l9-5 9 5 3 18H4z" fill="#7a4d32" stroke="#c99a62" stroke-width="1.5"/></symbol>
<symbol id="knight" viewBox="0 0 32 32"><path d="M5 8l11-5 11 5 2 19H3z" fill="#65738b" stroke="#cbd8ea" stroke-width="1.5"/><path d="M9 11h14M8 17h16" stroke="#293447" stroke-width="2"/></symbol>
<symbol id="mage_robe" viewBox="0 0 32 32"><path d="M8 7l8-4 8 4 5 20H3z" fill="#553e91" stroke="#b6a7ff" stroke-width="1.5"/><path d="M16 5v20" stroke="#6fe7ff"/></symbol>
<symbol id="shadow_armor" viewBox="0 0 32 32"><path d="M7 7l9-4 9 4 4 20H3z" fill="#292c45" stroke="#ef5bb5" stroke-width="1.5"/></symbol>
<symbol id="ring" viewBox="0 0 32 32"><circle cx="16" cy="16" r="8" fill="none" stroke="#e8bd55" stroke-width="3"/><circle cx="16" cy="8" r="3" fill="#ff5b6e"/></symbol>
<symbol id="potion" viewBox="0 0 32 32"><path d="M12 7h8v4h3v14H9V11h3z" fill="#55a8ff" stroke="#d8f0ff" stroke-width="1.5"/><path d="M10 18h12v7H10z" fill="#6c54ff"/></symbol>
<g transform="translate(0 16)"><use href="#warrior_idle" x="0" y="0"/><use href="#ranger_idle" x="32" y="0"/><use href="#mage_idle" x="64" y="0"/><use href="#assassin_idle" x="96" y="0"/><use href="#sword_long" x="128" y="0"/><use href="#bow" x="160" y="0"/><use href="#staff" x="192" y="0"/><use href="#dual_blade" x="224" y="0"/><use href="#leather" x="256" y="0"/><use href="#knight" x="288" y="0"/><use href="#mage_robe" x="320" y="0"/><use href="#shadow_armor" x="352" y="0"/><use href="#ring" x="384" y="0"/><use href="#potion" x="416" y="0"/></g>
</svg>